Coordinates
version=1
nRows=60
nColumns=12
inDegrees=yes

Units are S.I. units (second, meters, Newtons, ...)
Angles are in degrees

endheader
time	SC_y	SC_z	SC_x	AC_y	AC_z	AC_x	GH_y	GH_z	GH_yy	EL_x	PS_y
       0.0              -43.27          10.64          10.52          34.36         -17.38          -6.42         -169.4          14.82          177.5          112.5          22.34
  0.001287              -43.27          10.64          10.52          34.36         -17.38          -6.42         -169.4          14.82          177.5          112.5          22.34
  0.002575              -43.27          10.64          10.53          34.36         -17.38          -6.42         -169.4          14.82          177.5          112.5          22.35
  0.003862              -43.26          10.64          10.54          34.36         -17.38         -6.419         -169.4          14.82          177.5          112.5          22.35
  0.005149              -43.26          10.64          10.55          34.36         -17.38         -6.419         -169.4          14.81          177.5          112.5          22.36
  0.006437              -43.26          10.64          10.56          34.37         -17.38         -6.419         -169.3          14.81          177.4          112.5          22.36
  0.007724              -43.25          10.64          10.57          34.37         -17.38         -6.419         -169.3          14.81          177.4          112.5          22.37
  0.009011              -43.25          10.65          10.58          34.37         -17.38         -6.418         -169.3          14.81          177.4          112.5          22.37
    0.0103              -43.24          10.65          10.59          34.37         -17.38         -6.418         -169.3          14.81          177.3          112.5          22.38
   0.01159              -43.24          10.65           10.6          34.38         -17.39         -6.418         -169.2          14.81          177.3          112.5          22.39
   0.01287              -43.23          10.65          10.62          34.38         -17.39         -6.417         -169.2          14.81          177.3          112.6          22.39
   0.01416              -43.23          10.66          10.63          34.38         -17.39         -6.417         -169.2           14.8          177.2          112.6           22.4
   0.01545              -43.22          10.66          10.65          34.38         -17.39         -6.416         -169.1           14.8          177.2          112.6          22.41
   0.01674              -43.21          10.66          10.66          34.39         -17.39         -6.416         -169.1           14.8          177.2          112.6          22.42
   0.01802              -43.21          10.66          10.68          34.39         -17.39         -6.415         -169.1           14.8          177.1          112.6          22.43
   0.01931               -43.2          10.67           10.7           34.4         -17.39         -6.415         -169.0           14.8          177.1          112.6          22.44
    0.0206              -43.19          10.67          10.72           34.4         -17.39         -6.414         -169.0          14.79          177.0          112.6          22.45
   0.02188              -43.18          10.68          10.75          34.41         -17.39         -6.414         -168.9          14.79          176.9          112.6          22.46
   0.02317              -43.17          10.68          10.77          34.41         -17.39         -6.413         -168.9          14.79          176.9          112.6          22.48
   0.02446              -43.16          10.69           10.8          34.42         -17.39         -6.412         -168.8          14.78          176.8          112.6          22.49
   0.02575              -43.15          10.69          10.83          34.42         -17.39         -6.411         -168.8          14.78          176.7          112.6          22.51
   0.02703              -43.13           10.7          10.86          34.43          -17.4          -6.41         -168.7          14.78          176.6          112.6          22.53
   0.02832              -43.12           10.7           10.9          34.44          -17.4         -6.409         -168.6          14.77          176.5          112.6          22.55
   0.02961               -43.1          10.71          10.94          34.45          -17.4         -6.408         -168.5          14.77          176.4          112.7          22.57
    0.0309              -43.08          10.72          10.99          34.46          -17.4         -6.407         -168.4          14.76          176.3          112.7           22.6
   0.03218              -43.06          10.73          11.04          34.47          -17.4         -6.405         -168.3          14.76          176.2          112.7          22.62
   0.03347              -43.04          10.74           11.1          34.48          -17.4         -6.404         -168.2          14.75          176.0          112.7          22.65
   0.03476              -43.01          10.75          11.16          34.49         -17.41         -6.402         -168.0          14.74          175.8          112.7          22.69
   0.03605              -42.98          10.76          11.23          34.51         -17.41           -6.4         -167.9          14.73          175.7          112.8          22.73
   0.03733              -42.95          10.78          11.32          34.53         -17.41         -6.398         -167.7          14.72          175.4          112.8          22.77
   0.03862              -42.91           10.8          11.41          34.55         -17.42         -6.395         -167.5          14.71          175.2          112.8          22.83
   0.03991              -42.87          10.82          11.52          34.57         -17.42         -6.392         -167.3           14.7          174.9          112.8          22.88
   0.04119              -42.82          10.84          11.64           34.6         -17.43         -6.388         -167.0          14.68          174.6          112.9          22.95
   0.04248              -42.76          10.86          11.79          34.63         -17.43         -6.384         -166.7          14.67          174.2          112.9          23.03
   0.04377              -42.69          10.89          11.96          34.67         -17.44         -6.379         -166.3          14.65          173.7          113.0          23.12
   0.04506              -42.61          10.93          12.16          34.71         -17.45         -6.374         -165.9          14.62          173.2          113.1          23.23
   0.04634              -42.52          10.97           12.4          34.76         -17.46         -6.367         -165.4          14.59          172.6          113.1          23.36
   0.04763               -42.4          11.03          12.68          34.82         -17.47         -6.359         -164.8          14.56          171.8          113.2          23.52
   0.04892              -42.26          11.09          13.03          34.89         -17.48         -6.349         -164.1          14.52          170.9          113.3           23.7
   0.05021              -42.09          11.16          13.45          34.99          -17.5         -6.337         -163.2          14.47          169.8          113.5          23.93
   0.05149              -41.88          11.26          13.97           35.1         -17.52         -6.323         -162.1          14.41          168.5          113.6          24.22
   0.05278              -41.62          11.37          14.62          35.24         -17.54         -6.304         -160.7          14.33          166.7          113.9          24.57
   0.05407              -41.29          11.52          15.44          35.41         -17.58         -6.281         -158.9          14.23          164.6          114.1          25.01
   0.05536              -40.87          11.71          16.48          35.63         -17.62         -6.252         -156.7          14.11          161.9          114.5          25.58
   0.05664              -40.34          11.95          17.81          35.92         -17.67         -6.215         -153.9          13.95          158.4          114.9           26.3
   0.05793              -39.65          12.26          19.52          36.29         -17.74         -6.166         -150.2          13.74          153.9          115.5          27.23
   0.05922              -38.77          12.65          21.71          36.75         -17.83         -6.105         -145.6          13.48          148.1          116.2          28.42
    0.0605              -37.67          13.14          24.45          37.34         -17.93         -6.028         -139.7          13.16          140.9          117.1          29.91
   0.06179              -36.32          13.74          27.79          38.06         -18.07         -5.933         -132.6          12.76          132.1          118.1          31.73
   0.06308              -34.76          14.44          31.67          38.89         -18.22         -5.824         -124.4          12.29          121.9          119.4          33.83
   0.06437              -33.08           15.2          35.87          39.79         -18.39         -5.706         -115.4          11.79          110.9          120.8          36.11
   0.06565              -31.39          15.95          40.07          40.69         -18.55         -5.588         -106.5          11.29          99.81          122.2          38.39
   0.06694              -29.83          16.65          43.94          41.52         -18.71         -5.478         -98.21          10.83          89.62          123.4           40.5
   0.06823              -28.48          17.25          47.29          42.23         -18.84         -5.384         -91.09          10.43          80.82          124.5          42.32
   0.06952              -27.38          17.74          50.03          42.82         -18.95         -5.307         -85.24           10.1           73.6          125.4          43.81
    0.0708               -26.5          18.14          52.22          43.29         -19.04         -5.245         -80.59          9.844          67.86          126.1           45.0
   0.07209              -25.81          18.44          53.93          43.65          -19.1         -5.197         -76.95           9.64          63.36          126.7          45.92
   0.07338              -25.28          18.68          55.26          43.94         -19.16          -5.16         -74.12          9.481          59.86          127.1          46.65
   0.07467              -24.86          18.87           56.3          44.16          -19.2          -5.13          -71.9          9.357          57.12          127.4          47.21
   0.07595              -24.53          19.02          57.12          44.34         -19.23         -5.107         -70.16          9.259          54.97          127.7          47.66
